<svg width="48" height="48" viewBox="0 0 48 48" fill="none" xmlns="http://www.w3.org/2000/svg">
<path d="M6.01001 6.00586H42.01C42.5404 6.00586 43.0492 6.21657 43.4242 6.59165C43.7993 6.96672 44.01 7.47543 44.01 8.00586V40.0059C44.01 40.5363 43.7993 41.045 43.4242 41.4201C43.0492 41.7951 42.5404 42.0059 42.01 42.0059H6.01001C5.47958 42.0059 4.97087 41.7951 4.5958 41.4201C4.22072 41.045 4.01001 40.5363 4.01001 40.0059V8.00586C4.01001 7.47543 4.22072 6.96672 4.5958 6.59165C4.97087 6.21657 5.47958 6.00586 6.01001 6.00586ZM17.01 28.0059V32.0059H22.01V36.0059H26.01V32.0059H28.01C29.3361 32.0059 30.6079 31.4791 31.5455 30.5414C32.4832 29.6037 33.01 28.3319 33.01 27.0059C33.01 25.6798 32.4832 24.408 31.5455 23.4703C30.6079 22.5326 29.3361 22.0059 28.01 22.0059H20.01C19.7448 22.0059 19.4904 21.9005 19.3029 21.713C19.1154 21.5254 19.01 21.2711 19.01 21.0059C19.01 20.7406 19.1154 20.4863 19.3029 20.2988C19.4904 20.1112 19.7448 20.0059 20.01 20.0059H31.01V16.0059H26.01V12.0059H22.01V16.0059H20.01C18.6839 16.0059 17.4122 16.5326 16.4745 17.4703C15.5368 18.408 15.01 19.6798 15.01 21.0059C15.01 22.3319 15.5368 23.6037 16.4745 24.5414C17.4122 25.4791 18.6839 26.0059 20.01 26.0059H28.01C28.2752 26.0059 28.5296 26.1112 28.7171 26.2988C28.9047 26.4863 29.01 26.7406 29.01 27.0059C29.01 27.2711 28.9047 27.5254 28.7171 27.713C28.5296 27.9005 28.2752 28.0059 28.01 28.0059H17.01Z" fill="#2974FF"/>
</svg>
