<svg width="48" height="48" viewBox="0 0 48 48" fill="none" xmlns="http://www.w3.org/2000/svg">
<g clip-path="url(#clip0_369_396)">
<path d="M16.0001 21.5202H14.8401C13.2571 21.463 11.6793 21.7318 10.2045 22.3098C8.72964 22.8877 7.38936 23.7627 6.26678 24.8802L5.94678 25.2536V36.2936H11.3868V30.0269L12.1201 29.2002L12.4534 28.8136C14.1893 27.0302 16.3505 25.718 18.7334 25.0002C17.5408 24.092 16.5999 22.8941 16.0001 21.5202Z" fill="#2974FF"/>
<path d="M41.7866 24.8402C40.664 23.7226 39.3237 22.8477 37.8489 22.2697C36.3741 21.6917 34.7963 21.423 33.2133 21.4802C32.7278 21.4828 32.2428 21.5095 31.7599 21.5602C31.1489 22.8491 30.2338 23.9702 29.0933 24.8269C31.6375 25.53 33.9422 26.9129 35.7599 28.8269L36.0933 29.2002L36.8133 30.0269V36.3069H42.0666V25.2135L41.7866 24.8402Z" fill="#2974FF"/>
<path d="M14.8001 18.9202H15.2134C15.0214 17.2712 15.3107 15.6019 16.0465 14.1137C16.7823 12.6255 17.9332 11.3821 19.3601 10.5336C18.8428 9.74336 18.1292 9.10104 17.2892 8.66949C16.4491 8.23794 15.5113 8.03197 14.5677 8.07173C13.6241 8.1115 12.707 8.39564 11.9062 8.89633C11.1054 9.39703 10.4484 10.0971 9.99948 10.928C9.55055 11.7589 9.32511 12.6922 9.34523 13.6364C9.36536 14.5807 9.63036 15.5035 10.1143 16.3145C10.5982 17.1255 11.2845 17.797 12.1059 18.2631C12.9273 18.7292 13.8556 18.974 14.8001 18.9736V18.9202Z" fill="#2974FF"/>
<path d="M32.5734 17.9201C32.5885 18.2266 32.5885 18.5336 32.5734 18.8401C32.8292 18.8811 33.0877 18.9033 33.3467 18.9067H33.6C34.5403 18.8566 35.4516 18.5639 36.2452 18.057C37.0387 17.5501 37.6875 16.8464 38.1284 16.0144C38.5692 15.1823 38.7871 14.2503 38.7609 13.3091C38.7346 12.3678 38.4651 11.4494 37.9785 10.6432C37.492 9.83705 36.8049 9.17061 35.9843 8.70878C35.1638 8.24695 34.2376 8.00546 33.296 8.00783C32.3543 8.0102 31.4294 8.25634 30.6111 8.7223C29.7929 9.18825 29.1092 9.85814 28.6267 10.6667C29.8335 11.4547 30.8258 12.5298 31.5146 13.7958C32.2035 15.0617 32.5672 16.4789 32.5734 17.9201Z" fill="#2974FF"/>
<path d="M23.8267 23.8931C27.1183 23.8931 29.7867 21.2248 29.7867 17.9331C29.7867 14.6415 27.1183 11.9731 23.8267 11.9731C20.5351 11.9731 17.8667 14.6415 17.8667 17.9331C17.8667 21.2248 20.5351 23.8931 23.8267 23.8931Z" fill="#2974FF"/>
<path d="M24.1466 27.0666C22.4054 26.9971 20.6681 27.2802 19.039 27.8988C17.41 28.5174 15.9227 29.4589 14.6666 30.6666L14.3333 31.04V39.48C14.3385 39.7549 14.3978 40.0261 14.5078 40.2781C14.6178 40.5301 14.7764 40.7579 14.9745 40.9486C15.1727 41.1393 15.4064 41.289 15.6624 41.3894C15.9184 41.4897 16.1917 41.5386 16.4666 41.5333H31.7866C32.0615 41.5386 32.3348 41.4897 32.5908 41.3894C32.8468 41.289 33.0805 41.1393 33.2786 40.9486C33.4767 40.7579 33.6353 40.5301 33.7454 40.2781C33.8554 40.0261 33.9147 39.7549 33.9199 39.48V31.0666L33.5999 30.6666C32.3524 29.4545 30.8704 28.51 29.2448 27.891C27.6193 27.2719 25.8844 26.9914 24.1466 27.0666Z" fill="#2974FF"/>
</g>
<defs>
<clipPath id="clip0_369_396">
<rect width="48" height="48" fill="white"/>
</clipPath>
</defs>
</svg>
